<mxfile host="app.diagrams.net" modified="2023-06-05T19:59:57.505Z" agent="Mozilla/5.0 (Windows NT 10.0; Win64; x64) AppleWebKit/537.36 (KHTML, like Gecko) Chrome/113.0.0.0 Safari/537.36" etag="QaZTocfnTUPTs5EylNuK" version="21.3.7" type="github">
  <diagram name="Page-1" id="YMc2Lb0-uA0RhdW9XWHS">
    <mxGraphModel dx="187" dy="804" grid="1" gridSize="10" guides="1" tooltips="1" connect="1" arrows="1" fold="1" page="1" pageScale="1" pageWidth="850" pageHeight="1100" math="0" shadow="0">
      <root>
        <mxCell id="0" />
        <mxCell id="1" parent="0" />
        <mxCell id="9BNh7RZpfPYm2C82WYNC-1" value="Generalidades" style="text;strokeColor=none;fillColor=none;html=1;fontSize=16;fontStyle=1;verticalAlign=middle;align=left;fontColor=#FF0000;" vertex="1" parent="1">
          <mxGeometry x="40" y="40" width="100" height="40" as="geometry" />
        </mxCell>
        <mxCell id="9BNh7RZpfPYm2C82WYNC-2" value="Tratamientos" style="shape=table;startSize=30;container=1;collapsible=0;childLayout=tableLayout;fixedRows=1;rowLines=0;fontStyle=0;strokeColor=#2D7600;fontSize=16;fillColor=#60a917;fontColor=#ffffff;" vertex="1" parent="1">
          <mxGeometry x="50" y="120" width="240" height="180" as="geometry" />
        </mxCell>
        <mxCell id="9BNh7RZpfPYm2C82WYNC-3" value="" style="shape=tableRow;horizontal=0;startSize=0;swimlaneHead=0;swimlaneBody=0;top=0;left=0;bottom=0;right=0;collapsible=0;dropTarget=0;fillColor=none;points=[[0,0.5],[1,0.5]];portConstraint=eastwest;strokeColor=inherit;fontSize=16;" vertex="1" parent="9BNh7RZpfPYm2C82WYNC-2">
          <mxGeometry y="30" width="240" height="40" as="geometry" />
        </mxCell>
        <mxCell id="9BNh7RZpfPYm2C82WYNC-4" value="Artritis, Piel, LES" style="shape=partialRectangle;html=1;whiteSpace=wrap;connectable=0;fillColor=#cce5ff;top=0;left=0;bottom=0;right=0;overflow=hidden;pointerEvents=1;strokeColor=#36393d;fontSize=16;" vertex="1" parent="9BNh7RZpfPYm2C82WYNC-3">
          <mxGeometry width="100" height="40" as="geometry">
            <mxRectangle width="100" height="40" as="alternateBounds" />
          </mxGeometry>
        </mxCell>
        <mxCell id="9BNh7RZpfPYm2C82WYNC-5" value="Hidroxicloroquina" style="shape=partialRectangle;html=1;whiteSpace=wrap;connectable=0;fillColor=#cce5ff;top=0;left=0;bottom=0;right=0;align=left;spacingLeft=6;overflow=hidden;strokeColor=#36393d;fontSize=16;" vertex="1" parent="9BNh7RZpfPYm2C82WYNC-3">
          <mxGeometry x="100" width="140" height="40" as="geometry">
            <mxRectangle width="140" height="40" as="alternateBounds" />
          </mxGeometry>
        </mxCell>
        <mxCell id="9BNh7RZpfPYm2C82WYNC-6" value="" style="shape=tableRow;horizontal=0;startSize=0;swimlaneHead=0;swimlaneBody=0;top=0;left=0;bottom=0;right=0;collapsible=0;dropTarget=0;fillColor=none;points=[[0,0.5],[1,0.5]];portConstraint=eastwest;strokeColor=inherit;fontSize=16;" vertex="1" parent="9BNh7RZpfPYm2C82WYNC-2">
          <mxGeometry y="70" width="240" height="40" as="geometry" />
        </mxCell>
        <mxCell id="9BNh7RZpfPYm2C82WYNC-7" value="Artritis" style="shape=partialRectangle;html=1;whiteSpace=wrap;connectable=0;fillColor=#cdeb8b;top=0;left=0;bottom=0;right=0;overflow=hidden;strokeColor=#36393d;fontSize=16;" vertex="1" parent="9BNh7RZpfPYm2C82WYNC-6">
          <mxGeometry width="100" height="40" as="geometry">
            <mxRectangle width="100" height="40" as="alternateBounds" />
          </mxGeometry>
        </mxCell>
        <mxCell id="9BNh7RZpfPYm2C82WYNC-8" value="Metrotrexate, Lefunomida" style="shape=partialRectangle;html=1;whiteSpace=wrap;connectable=0;fillColor=#cdeb8b;top=0;left=0;bottom=0;right=0;align=left;spacingLeft=6;overflow=hidden;strokeColor=#36393d;fontSize=16;" vertex="1" parent="9BNh7RZpfPYm2C82WYNC-6">
          <mxGeometry x="100" width="140" height="40" as="geometry">
            <mxRectangle width="140" height="40" as="alternateBounds" />
          </mxGeometry>
        </mxCell>
        <mxCell id="9BNh7RZpfPYm2C82WYNC-9" value="" style="shape=tableRow;horizontal=0;startSize=0;swimlaneHead=0;swimlaneBody=0;top=0;left=0;bottom=0;right=0;collapsible=0;dropTarget=0;fillColor=none;points=[[0,0.5],[1,0.5]];portConstraint=eastwest;strokeColor=inherit;fontSize=16;" vertex="1" parent="9BNh7RZpfPYm2C82WYNC-2">
          <mxGeometry y="110" width="240" height="40" as="geometry" />
        </mxCell>
        <mxCell id="9BNh7RZpfPYm2C82WYNC-10" value="Organos" style="shape=partialRectangle;html=1;whiteSpace=wrap;connectable=0;fillColor=#ffcccc;top=0;left=0;bottom=0;right=0;overflow=hidden;strokeColor=#36393d;fontSize=16;" vertex="1" parent="9BNh7RZpfPYm2C82WYNC-9">
          <mxGeometry width="100" height="40" as="geometry">
            <mxRectangle width="100" height="40" as="alternateBounds" />
          </mxGeometry>
        </mxCell>
        <mxCell id="9BNh7RZpfPYm2C82WYNC-11" value="Azatioprina, Micofenolato" style="shape=partialRectangle;html=1;whiteSpace=wrap;connectable=0;fillColor=#ffcccc;top=0;left=0;bottom=0;right=0;align=left;spacingLeft=6;overflow=hidden;strokeColor=#36393d;fontSize=16;" vertex="1" parent="9BNh7RZpfPYm2C82WYNC-9">
          <mxGeometry x="100" width="140" height="40" as="geometry">
            <mxRectangle width="140" height="40" as="alternateBounds" />
          </mxGeometry>
        </mxCell>
        <mxCell id="9BNh7RZpfPYm2C82WYNC-15" style="shape=tableRow;horizontal=0;startSize=0;swimlaneHead=0;swimlaneBody=0;top=0;left=0;bottom=0;right=0;collapsible=0;dropTarget=0;fillColor=none;points=[[0,0.5],[1,0.5]];portConstraint=eastwest;strokeColor=inherit;fontSize=16;" vertex="1" parent="9BNh7RZpfPYm2C82WYNC-2">
          <mxGeometry y="150" width="240" height="30" as="geometry" />
        </mxCell>
        <mxCell id="9BNh7RZpfPYm2C82WYNC-16" value="Px Grave" style="shape=partialRectangle;html=1;whiteSpace=wrap;connectable=0;fillColor=#ffff88;top=0;left=0;bottom=0;right=0;overflow=hidden;strokeColor=#36393d;fontSize=16;" vertex="1" parent="9BNh7RZpfPYm2C82WYNC-15">
          <mxGeometry width="100" height="30" as="geometry">
            <mxRectangle width="100" height="30" as="alternateBounds" />
          </mxGeometry>
        </mxCell>
        <mxCell id="9BNh7RZpfPYm2C82WYNC-17" value="Ciclofosfamida" style="shape=partialRectangle;html=1;whiteSpace=wrap;connectable=0;fillColor=#ffff88;top=0;left=0;bottom=0;right=0;align=left;spacingLeft=6;overflow=hidden;strokeColor=#36393d;fontSize=16;" vertex="1" parent="9BNh7RZpfPYm2C82WYNC-15">
          <mxGeometry x="100" width="140" height="30" as="geometry">
            <mxRectangle width="140" height="30" as="alternateBounds" />
          </mxGeometry>
        </mxCell>
      </root>
    </mxGraphModel>
  </diagram>
</mxfile>
